# xmcd CD database file
#
# Track frame offsets:
#	150
#	11781
#	35788
#	49577
#	72346
#	87154
#
# Disc length: 1432 seconds
#
# Revision: 0
# Processed by: cddbd v1.5.1PL0 Copyright (c) Steve Scherf et al.
# Submitted via: CDex 1.60beta1
#
DISCID=4b059606
DTITLE=Greta Pope - You Don't Know Me
DYEAR=1900
DGENRE=Jazz
TTITLE0=Just the Way You Are
TTITLE1=My One and Only Love
TTITLE2=Lullaby of Broadway
TTITLE3=You Don't Know Me
TTITLE4=Be My Baby
TTITLE5=Till There Was You
EXTD=
EXTT0=
EXTT1=
EXTT2=
EXTT3=
EXTT4=
EXTT5=
PLAYORDER=
